<svg width="256" height="256" viewBox="0 0 256 256" xmlns="http://www.w3.org/2000/svg">
  <defs>
    <linearGradient id="g" x1="0" y1="0" x2="1" y2="1">
      <stop offset="0%" stop-color="#0ea5e9"/>
      <stop offset="100%" stop-color="#2563eb"/>
    </linearGradient>
  </defs>
  <rect x="16" y="16" width="224" height="224" rx="48" fill="url(#g)"/>
  <g fill="none" stroke="rgba(255,255,255,0.15)" stroke-width="2">
    <path d="M64 64 H192 M64 96 H192 M64 128 H192 M64 160 H192 M64 192 H192"/>
    <path d="M96 64 V192 M128 64 V192 M160 64 V192"/>
  </g>
  <g fill="white">
    <path d="M78 166c-7 0-12-2-16-6c-4-4-6-10-6-18v-28c0-8 2-14 6-18c4-4 9-6 16-6h36v16H84c-6 0-10 4-10 12v24c0 8 4 12 10 12h30v16H78z"/>
    <path d="M182 166h-40c-7 0-12-2-16-6c-4-4-6-10-6-18v-28c0-8 2-14 6-18c4-4 9-6 16-6h40v16h-38c-6 0-10 4-10 12v24c0 8 4 12 10 12h38v16z"/>
  </g>
</svg>
